HIERARCHY
ROOT Hips
{
  OFFSET 5.80788e-005 67.184 3.4734
  CHANNELS 6 Xposition Yposition Zposition Zrotation Xrotation Yrotation
  JOINT Chest
  {
    OFFSET 0 8.7983 -4.7612
    CHANNELS 6 Xposition Yposition Zposition Zrotation Xrotation Yrotation
    JOINT Chest2
    {
      OFFSET 0 8.0291 0.4195
      CHANNELS 6 Xposition Yposition Zposition Zrotation Xrotation Yrotation
      JOINT Chest3
      {
        OFFSET 0 9.9351 -2.2114
        CHANNELS 6 Xposition Yposition Zposition Zrotation Xrotation Yrotation
        JOINT Neck
        {
          OFFSET 0 22.3885 -0.4656
          CHANNELS 6 Xposition Yposition Zposition Zrotation Xrotation Yrotation
          JOINT Head
          {
            OFFSET -0.0001 12.643 3.4389
            CHANNELS 6 Xposition Yposition Zposition Zrotation Xrotation Yrotation
            End Site
            {
              OFFSET 0.0001 17.6655 0.5274
            }
          }
        }
        JOINT LeftCollar
        {
          OFFSET 2.2603 21.606 7.4023
          CHANNELS 6 Xposition Yposition Zposition Zrotation Xrotation Yrotation
          JOINT LeftShoulder
          {
            OFFSET 13.5163 -1.1332 -5.0146
            CHANNELS 6 Xposition Yposition Zposition Zrotation Xrotation Yrotation
            JOINT LeftElbow
            {
              OFFSET -0.0995 -28.05 -0.2431
              CHANNELS 6 Xposition Yposition Zposition Zrotation Xrotation Yrotation
              JOINT LeftWrist
              {
                OFFSET 0.0679 -23.3996 -0.1402
                CHANNELS 6 Xposition Yposition Zposition Zrotation Xrotation Yrotation
                JOINT LeftFinger1
                {
                  OFFSET 0.7932 -9.069 2.5189
                  CHANNELS 6 Xposition Yposition Zposition Zrotation Xrotation Yrotation
                  JOINT LeftFinger11
                  {
                    OFFSET -0.8272 -3.3923 0.5977
                    CHANNELS 6 Xposition Yposition Zposition Zrotation Xrotation Yrotation
                    JOINT LeftFinger12
                    {
                      OFFSET -0.5649 -2.3158 0.4082
                      CHANNELS 6 Xposition Yposition Zposition Zrotation Xrotation Yrotation
                      End Site
                      {
                        OFFSET -0.4919 -1.6479 0.2673
                      }
                    }
                  }
                }
                JOINT LeftFinger2
                {
                  OFFSET 0.9159 -9.2044 0.2193
                  CHANNELS 6 Xposition Yposition Zposition Zrotation Xrotation Yrotation
                  JOINT LeftFinger21
                  {
                    OFFSET 0.0117 -4.1944 -0.0248
                    CHANNELS 6 Xposition Yposition Zposition Zrotation Xrotation Yrotation
                    JOINT LeftFinger22
                    {
                      OFFSET 0.0071 -2.3249 -0.0142
                      CHANNELS 6 Xposition Yposition Zposition Zrotation Xrotation Yrotation
                      End Site
                      {
                        OFFSET -0.1475 -2.0882 0.0028
                      }
                    }
                  }
                }
                JOINT LeftFinger3
                {
                  OFFSET 0.6113 -8.7231 -2.0637
                  CHANNELS 6 Xposition Yposition Zposition Zrotation Xrotation Yrotation
                  JOINT LeftFinger31
                  {
                    OFFSET -0.1927 -3.8059 -0.2383
                    CHANNELS 6 Xposition Yposition Zposition Zrotation Xrotation Yrotation
                    JOINT LeftFinger32
                    {
                      OFFSET -0.1091 -2.1688 -0.1362
                      CHANNELS 6 Xposition Yposition Zposition Zrotation Xrotation Yrotation
                      End Site
                      {
                        OFFSET -0.2358 -1.9176 -0.0906
                      }
                    }
                  }
                }
                JOINT LeftFinger4
                {
                  OFFSET -0.6151 -8.0947 -3.5641
                  CHANNELS 6 Xposition Yposition Zposition Zrotation Xrotation Yrotation
                  JOINT LeftFinger41
                  {
                    OFFSET -0.4882 -2.341 -0.6462
                    CHANNELS 6 Xposition Yposition Zposition Zrotation Xrotation Yrotation
                    JOINT LeftFinger42
                    {
                      OFFSET -0.3575 -1.7167 -0.4742
                      CHANNELS 6 Xposition Yposition Zposition Zrotation Xrotation Yrotation
                      End Site
                      {
                        OFFSET -0.4187 -1.5237 -0.3496
                      }
                    }
                  }
                }
                JOINT LeftFinger0
                {
                  OFFSET -1.42 -1.8761 1.4223
                  CHANNELS 6 Xposition Yposition Zposition Zrotation Xrotation Yrotation
                  JOINT LeftFinger01
                  {
                    OFFSET -1.1471 -3.4929 2.6334
                    CHANNELS 6 Xposition Yposition Zposition Zrotation Xrotation Yrotation
                    JOINT LeftFinger02
                    {
                      OFFSET -0.823 -2.3 1.6571
                      CHANNELS 6 Xposition Yposition Zposition Zrotation Xrotation Yrotation
                      End Site
                      {
                        OFFSET -0.5822 -1.6914 1.1582
                      }
                    }
                  }
                }
              }
            }
          }
        }
        JOINT RightCollar
        {
          OFFSET -2.2603 21.606 7.4023
          CHANNELS 6 Xposition Yposition Zposition Zrotation Xrotation Yrotation
          JOINT RightShoulder
          {
            OFFSET -13.5187 -1.1334 -5.0155
            CHANNELS 6 Xposition Yposition Zposition Zrotation Xrotation Yrotation
            JOINT RightElbow
            {
              OFFSET 0.0994 -28.0499 -0.2431
              CHANNELS 6 Xposition Yposition Zposition Zrotation Xrotation Yrotation
              JOINT RightWrist
              {
                OFFSET -0.0679 -23.3996 -0.1402
                CHANNELS 6 Xposition Yposition Zposition Zrotation Xrotation Yrotation
                JOINT RightFinger1
                {
                  OFFSET -0.7932 -9.0691 2.5189
                  CHANNELS 6 Xposition Yposition Zposition Zrotation Xrotation Yrotation
                  JOINT RightFinger11
                  {
                    OFFSET 0.8272 -3.3923 0.5977
                    CHANNELS 6 Xposition Yposition Zposition Zrotation Xrotation Yrotation
                    JOINT RightFinger12
                    {
                      OFFSET 0.565 -2.3158 0.4082
                      CHANNELS 6 Xposition Yposition Zposition Zrotation Xrotation Yrotation
                      End Site
                      {
                        OFFSET 0.4919 -1.6479 0.2673
                      }
                    }
                  }
                }
                JOINT RightFinger2
                {
                  OFFSET -0.916 -9.2044 0.2193
                  CHANNELS 6 Xposition Yposition Zposition Zrotation Xrotation Yrotation
                  JOINT RightFinger21
                  {
                    OFFSET -0.0117 -4.1944 -0.0248
                    CHANNELS 6 Xposition Yposition Zposition Zrotation Xrotation Yrotation
                    JOINT RightFinger22
                    {
                      OFFSET -0.0071 -2.3249 -0.0142
                      CHANNELS 6 Xposition Yposition Zposition Zrotation Xrotation Yrotation
                      End Site
                      {
                        OFFSET 0.1475 -2.0882 0.0028
                      }
                    }
                  }
                }
                JOINT RightFinger3
                {
                  OFFSET -0.6113 -8.7231 -2.0637
                  CHANNELS 6 Xposition Yposition Zposition Zrotation Xrotation Yrotation
                  JOINT RightFinger31
                  {
                    OFFSET 0.1927 -3.8059 -0.2383
                    CHANNELS 6 Xposition Yposition Zposition Zrotation Xrotation Yrotation
                    JOINT RightFinger32
                    {
                      OFFSET 0.1091 -2.1688 -0.1362
                      CHANNELS 6 Xposition Yposition Zposition Zrotation Xrotation Yrotation
                      End Site
                      {
                        OFFSET 0.2358 -1.9176 -0.0906
                      }
                    }
                  }
                }
                JOINT RightFinger4
                {
                  OFFSET 0.6151 -8.0947 -3.564
                  CHANNELS 6 Xposition Yposition Zposition Zrotation Xrotation Yrotation
                  JOINT RightFinger41
                  {
                    OFFSET 0.4882 -2.341 -0.6462
                    CHANNELS 6 Xposition Yposition Zposition Zrotation Xrotation Yrotation
                    JOINT RightFinger42
                    {
                      OFFSET 0.3574 -1.7166 -0.4742
                      CHANNELS 6 Xposition Yposition Zposition Zrotation Xrotation Yrotation
                      End Site
                      {
                        OFFSET 0.4187 -1.5237 -0.3496
                      }
                    }
                  }
                }
                JOINT RightFinger0
                {
                  OFFSET 1.4199 -1.8761 1.4221
                  CHANNELS 6 Xposition Yposition Zposition Zrotation Xrotation Yrotation
                  JOINT RightFinger01
                  {
                    OFFSET 1.1472 -3.4929 2.6336
                    CHANNELS 6 Xposition Yposition Zposition Zrotation Xrotation Yrotation
                    JOINT RightFinger02
                    {
                      OFFSET 0.8229 -2.3 1.6571
                      CHANNELS 6 Xposition Yposition Zposition Zrotation Xrotation Yrotation
                      End Site
                      {
                        OFFSET 0.5822 -1.6914 1.1582
                      }
                    }
                  }
                }
              }
            }
          }
        }
      }
    }
  }
  JOINT RightHip
  {
    OFFSET -9.412 3.9771 -0.7758
    CHANNELS 6 Xposition Yposition Zposition Zrotation Xrotation Yrotation
    JOINT RightKnee
    {
      OFFSET -0.7531 -40.938 0
      CHANNELS 6 Xposition Yposition Zposition Zrotation Xrotation Yrotation
      JOINT RightAnkle
      {
        OFFSET 0 -40.1986 0
        CHANNELS 6 Xposition Yposition Zposition Zrotation Xrotation Yrotation
        JOINT RightToe
        {
          OFFSET 0 -4.4182 9.239
          CHANNELS 6 Xposition Yposition Zposition Zrotation Xrotation Yrotation
          End Site
          {
            OFFSET 0 0 6.1981
          }
        }
      }
    }
  }
  JOINT LeftHip
  {
    OFFSET 9.4119 3.9773 -0.7758
    CHANNELS 6 Xposition Yposition Zposition Zrotation Xrotation Yrotation
    JOINT LeftKnee
    {
      OFFSET 0.7532 -40.9383 0
      CHANNELS 6 Xposition Yposition Zposition Zrotation Xrotation Yrotation
      JOINT LeftAnkle
      {
        OFFSET 0 -40.1986 0
        CHANNELS 6 Xposition Yposition Zposition Zrotation Xrotation Yrotation
        JOINT LeftToe
        {
          OFFSET 0 -4.4182 9.239
          CHANNELS 6 Xposition Yposition Zposition Zrotation Xrotation Yrotation
          End Site
          {
            OFFSET 0 0 6.1981
          }
        }
      }
    }
  }
}
MOTION
Frames:	4
Frame Time:	0.0333333
39.8405 20.3865 5.92433 -0.00385285 -56.9961 179.995 0 8.7983 -4.7612 -0.199384 7.55206 -0.1263 1.42109e-014 8.0291 0.4195 -0.386919 15.1045 -0.228843 -1.42109e-014 9.9351 -2.2114 -0.38692 15.1046 -0.228843 0 22.3885 -0.4656 -3.72942 -13.6347 -2.06978 -0.0001 12.643 3.4389 -9.43132 -9.50022 -4.18819 2.2603 21.606 7.4023 0.346693 -9.30545 -47.5888 13.5163 -1.1332 -5.0146 91.5824 -27.1246 13.0209 -0.0995 -28.05 -0.2431 6.17226 -5.51058 12.3047 0.0679 -23.3996 -0.1402 58.9192 -8.70083 15.3096 0.7932 -9.069 2.5189 3.18055e-015 -3.18055e-015 -0 -0.8272 -3.3923 0.5977 -1.59028e-015 3.18055e-015 2.78299e-015 -0.5649 -2.3158 0.4082 1.59028e-015 3.18055e-015 -1.59028e-015 0.9159 -9.2044 0.2193 3.18055e-015 -3.18055e-015 -0 0.0117 -4.1944 -0.0248 -0.0128099 0.00232102 8.06102e-005 0.0071 -2.3249 -0.0142 4.77083e-015 3.18055e-015 3.18055e-015 0.6113 -8.7231 -2.0637 3.18055e-015 -3.18055e-015 -0 -0.1927 -3.8059 -0.2383 -0.0160135 0.00300457 0.000863076 -0.1091 -2.1688 -0.1362 -1.59028e-015 -3.18055e-015 1.98785e-015 -0.6151 -8.0947 -3.5641 3.18055e-015 -3.18055e-015 -0 -0.4882 -2.341 -0.6462 -0.0125602 0.00310609 0.00281488 -0.3575 -1.7167 -0.4742 -3.18055e-015 3.18055e-015 1.59028e-015 -1.42 -1.8761 1.4223 3.18055e-015 -3.18055e-015 -0 -1.1471 -3.4929 2.6334 -1.59028e-015 3.18055e-015 2.78299e-015 -0.823 -2.3 1.6571 1.59028e-015 3.18055e-015 -1.59028e-015 -2.2603 21.606 7.4023 0.19165 -8.30268 36.8096 -13.5187 -1.1334 -5.0155 -92.1794 -42.8262 -13.2944 0.0994 -28.0499 -0.2431 -9.22934 -12.5492 -13.1054 -0.0679 -23.3996 -0.1402 -58.5912 -4.56752 -6.76808 -0.7932 -9.0691 2.5189 -3.95174e-006 -3.10015e-006 7.11082e-006 0.8272 -3.3923 0.5977 6.23284e-007 4.13851e-006 -3.69043e-006 0.565 -2.3158 0.4082 -6.2391e-006 -2.7659e-006 5.26539e-006 -0.916 -9.2044 0.2193 -3.95174e-006 -3.10015e-006 7.11082e-006 -0.0117 -4.1944 -0.0248 0.0129503 0.00233006 -9.68278e-005 -0.0071 -2.3249 -0.0142 3.18055e-015 0 1.59028e-015 -0.6113 -8.7231 -2.0637 -3.95174e-006 -3.10015e-006 7.11082e-006 0.1927 -3.8059 -0.2383 0.016347 0.00304208 -0.0008792 0.1091 -2.1688 -0.1362 -1.59028e-015 -6.36111e-015 3.97569e-016 0.6151 -8.0947 -3.564 -3.95174e-006 -3.10015e-006 7.11082e-006 0.4882 -2.341 -0.6462 0.014613 0.00369381 -0.00327446 0.3574 -1.7166 -0.4742 -1.59028e-015 3.18055e-015 -2.78299e-015 1.4199 -1.8761 1.4221 -3.95174e-006 -3.10015e-006 7.11082e-006 1.1472 -3.4929 2.6336 6.23284e-007 4.13851e-006 -3.69043e-006 0.8229 -2.3 1.6571 -6.2391e-006 -2.7659e-006 5.26539e-006 -9.412 3.9771 -0.7758 -67.0092 -51.7931 -67.7864 -0.7531 -40.938 0 -117.349 60.5661 117.695 -7.10543e-015 -40.1986 0 -17.0769 42.2948 4.37227 7.10543e-015 -4.4182 9.239 -3.68389e-006 1.24626e-005 4.85743e-007 9.4119 3.9773 -0.7758 67.0035 -51.7973 67.7808 0.7532 -40.9383 4.44089e-016 117.348 60.5664 -117.698 0 -40.1986 -4.44089e-016 17.0752 42.2941 -4.37525 -3.55271e-015 -4.4182 9.239 -3.11095e-006 -1.59988e-006 5.56053e-006 
39.8405 20.3865 5.84324 -0.00385285 -56.9961 179.995 0 8.7983 -4.7612 -0.199639 7.6123 -0.126006 -7.10543e-015 8.0291 0.4195 -0.387418 15.225 -0.228036 0 9.9351 -2.2114 -0.387419 15.2251 -0.228037 -7.10543e-015 22.3885 -0.4656 -3.76626 -13.942 -2.09742 -0.0001 12.643 3.4389 -9.51704 -9.7537 -4.24356 2.2603 21.606 7.4023 0.357469 -9.42747 -47.3055 13.5163 -1.1332 -5.0146 91.5863 -27.4018 13.0014 -0.0995 -28.05 -0.2431 6.29736 -5.60993 12.323 0.0679 -23.3996 -0.1402 58.9192 -8.70078 15.3096 0.7932 -9.069 2.5189 1.59028e-015 3.18055e-015 -6.75868e-015 -0.8272 -3.3923 0.5977 5.93726e-007 8.25692e-007 6.04638e-006 -0.5649 -2.3158 0.4082 6.89835e-006 -3.84884e-007 -8.97106e-006 0.9159 -9.2044 0.2193 1.59028e-015 3.18055e-015 -6.75868e-015 0.0117 -4.1944 -0.0248 -0.0127952 0.00232013 8.63216e-005 0.0071 -2.3249 -0.0142 1.59028e-015 -2.88514e-006 1.19271e-015 0.6113 -8.7231 -2.0637 1.59028e-015 3.18055e-015 -6.75868e-015 -0.1927 -3.8059 -0.2383 -0.0161364 0.00299739 0.000859697 -0.1091 -2.1688 -0.1362 -3.18055e-015 3.18055e-015 -4.77083e-015 -0.6151 -8.0947 -3.5641 1.59028e-015 3.18055e-015 -6.75868e-015 -0.4882 -2.341 -0.6462 -0.0125628 0.00311463 0.00282307 -0.3575 -1.7167 -0.4742 -0 0 1.19271e-015 -1.42 -1.8761 1.4223 1.59028e-015 3.18055e-015 -6.75868e-015 -1.1471 -3.4929 2.6334 5.93726e-007 8.25692e-007 6.04638e-006 -0.823 -2.3 1.6571 6.89835e-006 -3.84884e-007 -8.97106e-006 -2.2603 21.606 7.4023 0.180512 -8.44443 36.5647 -13.5187 -1.1334 -5.0155 -92.2133 -43.039 -13.3095 0.0994 -28.0499 -0.2431 -9.22962 -12.5494 -13.1055 -0.0679 -23.3996 -0.1402 -58.7239 -4.51477 -6.76121 -0.7932 -9.0691 2.5189 3.1858e-006 -3.87902e-007 1.05283e-006 0.8272 -3.3923 0.5977 -3.8119e-006 9.26055e-007 2.62731e-006 0.565 -2.3158 0.4082 1.59028e-015 3.18055e-015 1.19271e-015 -0.916 -9.2044 0.2193 3.1858e-006 -3.87902e-007 1.05283e-006 -0.0117 -4.1944 -0.0248 0.0129345 0.00232104 -8.37677e-005 -0.0071 -2.3249 -0.0142 4.23274e-006 2.25256e-006 -4.20289e-006 -0.6113 -8.7231 -2.0637 3.1858e-006 -3.87902e-007 1.05283e-006 0.1927 -3.8059 -0.2383 0.0163327 0.00303529 -0.000875513 0.1091 -2.1688 -0.1362 1.71859e-006 -3.20768e-006 7.88464e-006 0.6151 -8.0947 -3.564 3.1858e-006 -3.87902e-007 1.05283e-006 0.4882 -2.341 -0.6462 0.0145716 0.00368254 -0.00325523 0.3574 -1.7166 -0.4742 2.93604e-007 5.42554e-006 -8.93406e-006 1.4199 -1.8761 1.4221 3.1858e-006 -3.87902e-007 1.05283e-006 1.1472 -3.4929 2.6336 -3.8119e-006 9.26055e-007 2.62731e-006 0.8229 -2.3 1.6571 1.59028e-015 3.18055e-015 1.19271e-015 -9.412 3.9771 -0.7758 -67.0093 -51.7931 -67.7865 -0.7531 -40.938 1.77636e-015 -117.349 60.5661 117.695 0 -40.1986 7.10543e-015 -17.0769 42.2948 4.37228 7.10543e-015 -4.4182 9.239 3.18055e-015 3.18055e-015 3.18055e-015 9.4119 3.9773 -0.7758 67.0035 -51.7973 67.7808 0.7532 -40.9383 -4.44089e-016 117.348 60.5664 -117.698 0 -40.1986 0 17.0753 42.2941 -4.37531 0 -4.4182 9.239 -3.18055e-015 3.18055e-015 -0 
39.8405 20.3865 5.76214 -0.00385285 -56.9961 179.995 0 8.7983 -4.7612 -0.199897 7.67256 -0.1257 7.10543e-015 8.0291 0.4195 -0.387927 15.3455 -0.227205 0 9.9351 -2.2114 -0.387928 15.3455 -0.227206 0 22.3885 -0.4656 -3.8033 -14.2491 -2.1253 -0.0001 12.643 3.4389 -9.60307 -10.0071 -4.29935 2.2603 21.606 7.4023 0.368848 -9.54939 -47.0221 13.5163 -1.1332 -5.0146 91.5909 -27.6792 12.9821 -0.0995 -28.05 -0.2431 6.42193 -5.70896 12.3414 0.0679 -23.3996 -0.1402 58.9192 -8.70081 15.3095 0.7932 -9.069 2.5189 3.18055e-015 -6.36111e-015 -7.55382e-015 -0.8272 -3.3923 0.5977 4.77083e-015 0 -2.38542e-015 -0.5649 -2.3158 0.4082 1.59028e-015 -6.36111e-015 -3.57812e-015 0.9159 -9.2044 0.2193 3.18055e-015 -6.36111e-015 -7.55382e-015 0.0117 -4.1944 -0.0248 -0.0127942 0.0023204 8.30224e-005 0.0071 -2.3249 -0.0142 1.59028e-015 -3.18055e-015 -1.98785e-015 0.6113 -8.7231 -2.0637 3.18055e-015 -6.36111e-015 -7.55382e-015 -0.1927 -3.8059 -0.2383 -0.0160783 0.00300099 0.000847507 -0.1091 -2.1688 -0.1362 4.77083e-015 1.27222e-014 -7.95139e-016 -0.6151 -8.0947 -3.5641 3.18055e-015 -6.36111e-015 -7.55382e-015 -0.4882 -2.341 -0.6462 -0.0126022 0.00312401 0.00282706 -0.3575 -1.7167 -0.4742 1.59028e-015 -3.18055e-015 -2.38542e-015 -1.42 -1.8761 1.4223 3.18055e-015 -6.36111e-015 -7.55382e-015 -1.1471 -3.4929 2.6334 4.77083e-015 0 -2.38542e-015 -0.823 -2.3 1.6571 1.59028e-015 -6.36111e-015 -3.57812e-015 -2.2603 21.606 7.4023 0.168755 -8.58611 36.3196 -13.5187 -1.1334 -5.0155 -92.2484 -43.2521 -13.3255 0.0994 -28.0499 -0.2431 -9.22932 -12.5491 -13.1054 -0.0679 -23.3996 -0.1402 -58.8566 -4.46201 -6.75422 -0.7932 -9.0691 2.5189 -1.59242e-006 -1.9944e-006 -5.27531e-007 0.8272 -3.3923 0.5977 3.93487e-006 -3.79843e-007 4.73481e-006 0.565 -2.3158 0.4082 3.18055e-015 -9.54166e-015 -1.98785e-015 -0.916 -9.2044 0.2193 -1.59242e-006 -1.9944e-006 -5.27531e-007 -0.0117 -4.1944 -0.0248 0.0129668 0.0023236 -7.58792e-005 -0.0071 -2.3249 -0.0142 -6.62086e-032 3.18055e-015 1.19271e-015 -0.6113 -8.7231 -2.0637 -1.59242e-006 -1.9944e-006 -5.27531e-007 0.1927 -3.8059 -0.2383 0.0163595 0.00304314 -0.000873118 0.1091 -2.1688 -0.1362 8.74501e-006 -5.84933e-006 -2.88312e-006 0.6151 -8.0947 -3.564 -1.59242e-006 -1.9944e-006 -5.27531e-007 0.4882 -2.341 -0.6462 0.0145604 0.00367412 -0.00324996 0.3574 -1.7166 -0.4742 -4.47503e-006 1.21495e-005 -1.05089e-005 1.4199 -1.8761 1.4221 -1.59242e-006 -1.9944e-006 -5.27531e-007 1.1472 -3.4929 2.6336 3.93487e-006 -3.79843e-007 4.73481e-006 0.8229 -2.3 1.6571 3.18055e-015 -9.54166e-015 -1.98785e-015 -9.412 3.9771 -0.7758 -67.0092 -51.7932 -67.7864 -0.7531 -40.938 0 -117.349 60.5661 117.695 -7.10543e-015 -40.1986 0 -17.0769 42.2948 4.37227 -7.10543e-015 -4.4182 9.239 9.54166e-015 1.27222e-014 6.36111e-015 9.4119 3.9773 -0.7758 67.0035 -51.7973 67.7809 0.7532 -40.9383 0 117.348 60.5664 -117.698 -3.55271e-015 -40.1986 8.88178e-016 17.0753 42.2941 -4.37529 3.55271e-015 -4.4182 9.239 -1.8221e-006 4.15606e-006 4.77638e-006 
39.8405 20.3865 5.68105 -0.00385285 -56.9961 179.995 0 8.7983 -4.7612 -0.200159 7.73278 -0.125381 -7.10543e-015 8.0291 0.4195 -0.388447 15.466 -0.226347 7.10543e-015 9.9351 -2.2114 -0.388448 15.466 -0.226347 0 22.3885 -0.4656 -3.84055 -14.5563 -2.15342 -0.0001 12.643 3.4389 -9.68941 -10.2604 -4.35556 2.2603 21.606 7.4023 0.380841 -9.67132 -46.7386 13.5163 -1.1332 -5.0146 91.5956 -27.9566 12.9628 -0.0995 -28.05 -0.2431 6.54635 -5.80791 12.3601 0.0679 -23.3996 -0.1402 58.9192 -8.70079 15.3095 0.7932 -9.069 2.5189 1.98626e-031 3.18055e-015 -3.57812e-015 -0.8272 -3.3923 0.5977 1.59028e-015 3.18055e-015 -1.19271e-015 -0.5649 -2.3158 0.4082 1.59028e-015 6.36111e-015 -7.95139e-016 0.9159 -9.2044 0.2193 1.98626e-031 3.18055e-015 -3.57812e-015 0.0117 -4.1944 -0.0248 -0.0128882 0.00234005 7.95186e-005 0.0071 -2.3249 -0.0142 -1.59028e-015 -3.18055e-015 -3.57812e-015 0.6113 -8.7231 -2.0637 1.98626e-031 3.18055e-015 -3.57812e-015 -0.1927 -3.8059 -0.2383 -0.0160406 0.00299791 0.000860487 -0.1091 -2.1688 -0.1362 1.59028e-015 0 -2.78299e-015 -0.6151 -8.0947 -3.5641 1.98626e-031 3.18055e-015 -3.57812e-015 -0.4882 -2.341 -0.6462 -0.0125641 0.00311728 0.00281492 -0.3575 -1.7167 -0.4742 -3.18055e-015 6.36111e-015 -5.96354e-015 -1.42 -1.8761 1.4223 1.98626e-031 3.18055e-015 -3.57812e-015 -1.1471 -3.4929 2.6334 1.59028e-015 3.18055e-015 -1.19271e-015 -0.823 -2.3 1.6571 1.59028e-015 6.36111e-015 -7.95139e-016 -2.2603 21.606 7.4023 0.156381 -8.72776 36.0745 -13.5187 -1.1334 -5.0155 -92.2834 -43.4651 -13.3416 0.0994 -28.0499 -0.2431 -9.22917 -12.549 -13.1054 -0.0679 -23.3996 -0.1402 -58.9893 -4.40925 -6.74714 -0.7932 -9.0691 2.5189 -1.22908e-006 2.92528e-008 -7.07039e-006 0.8272 -3.3923 0.5977 2.43761e-006 6.41723e-006 -2.62433e-006 0.565 -2.3158 0.4082 -6.98409e-006 -1.46164e-005 1.57206e-005 -0.916 -9.2044 0.2193 -1.22908e-006 2.92528e-008 -7.07039e-006 -0.0117 -4.1944 -0.0248 0.0129482 0.00230698 -6.82944e-005 -0.0071 -2.3249 -0.0142 3.18055e-015 0 3.97569e-016 -0.6113 -8.7231 -2.0637 -1.22908e-006 2.92528e-008 -7.07039e-006 0.1927 -3.8059 -0.2383 0.0162851 0.00303131 -0.000863103 0.1091 -2.1688 -0.1362 1.59182e-006 3.34204e-006 5.28707e-007 0.6151 -8.0947 -3.564 -1.22908e-006 2.92528e-008 -7.07039e-006 0.4882 -2.341 -0.6462 0.0145983 0.00368777 -0.00326902 0.3574 -1.7166 -0.4742 1.59182e-006 4.28521e-006 5.28738e-007 1.4199 -1.8761 1.4221 -1.22908e-006 2.92528e-008 -7.07039e-006 1.1472 -3.4929 2.6336 2.43761e-006 6.41723e-006 -2.62433e-006 0.8229 -2.3 1.6571 -6.98409e-006 -1.46164e-005 1.57206e-005 -9.412 3.9771 -0.7758 -67.0092 -51.7932 -67.7864 -0.7531 -40.938 -3.55271e-015 -117.349 60.5661 117.695 7.10543e-015 -40.1986 0 -17.0769 42.2948 4.3723 -2.13163e-014 -4.4182 9.239 2.17408e-006 5.15124e-006 -6.90242e-006 9.4119 3.9773 -0.7758 67.0035 -51.7973 67.7809 0.7532 -40.9383 4.44089e-016 117.348 60.5664 -117.698 -1.77636e-015 -40.1986 8.88178e-016 17.0753 42.2941 -4.37529 3.55271e-015 -4.4182 9.239 -1.8221e-006 4.15606e-006 4.77638e-006 
